<svg width="1337" height="1092" viewBox="0 0 1337 1092" fill="none" xmlns="http://www.w3.org/2000/svg">
    <path d="M601.248 627.68L601.238 627.686C586.952 635.919 567.783 641.939 543.782 645.785M601.248 627.68L543.624 644.798M601.248 627.68L601.259 627.673C615.552 618.952 625.499 607.773 631.032 594.13C637.082 580.548 640.086 564.106 640.086 544.837C640.086 525.568 637.082 509.126 631.032 495.544C625.498 481.898 615.547 470.956 601.248 462.713C586.957 453.996 567.784 447.735 543.782 443.888M601.248 627.68L543.624 444.876M543.782 645.785L543.624 644.798M543.782 645.785C543.783 645.785 543.784 645.785 543.786 645.785L543.624 644.798M543.782 645.785C520.32 649.632 490.89 651.551 455.504 651.551H41.0171H40.0171V650.551V439.123V438.123H41.0171H455.504C490.89 438.123 520.32 440.041 543.782 443.888M543.624 644.798C520.234 648.633 490.861 650.551 455.504 650.551H42.0171H41.0171V649.551V440.123V439.123H42.0171H455.504C490.861 439.123 520.234 441.04 543.624 444.876M543.782 443.888L543.624 444.876M543.782 443.888C543.783 443.889 543.785 443.889 543.786 443.889L543.624 444.876M1312.67 731.558L1312.67 731.556C1328 677.077 1335.67 614.955 1335.67 545.202C1335.67 475.977 1328 414.382 1312.67 360.43C1297.33 306.498 1275.65 259.414 1247.6 219.193C1220.08 178.45 1186.74 144.314 1147.58 116.793C1108.44 88.758 1064.8 66.2814 1016.68 49.36C969.102 32.4425 917.829 20.2861 862.868 12.8872C807.918 4.96191 750.595 1 690.901 1H2H1V2V232.728V233.728H2H497.116C578.654 233.728 647.644 241.155 704.106 255.989L704.108 255.989C761.132 270.828 807.234 291.874 842.455 319.098L842.461 319.102C878.23 346.33 903.951 379.269 919.652 417.925L919.655 417.932L919.659 417.94C935.918 456.154 944.057 498.928 944.057 546.275C944.057 587.878 937.275 624.174 923.742 655.185L923.739 655.192L923.736 655.199C910.73 686.246 892.852 712.982 870.106 735.417L870.105 735.418C847.881 757.395 821.856 776.034 792.023 791.333C762.161 806.646 730.668 819.329 697.542 829.38L696 829.848L697.104 831.022L921.188 1069.35L921.573 1069.76L922.124 1069.64C955.691 1062.49 987.738 1053.48 1018.27 1042.63C1065.86 1025.71 1108.97 1003.23 1147.59 975.191C1186.74 947.144 1220.08 913.011 1247.6 872.797C1275.65 832.575 1297.33 785.491 1312.67 731.558ZM588.84 1090.99H591.14L589.571 1089.31L372.196 856.264L371.899 855.946H371.465H41.0171H40.0171V856.946V1089.99V1090.99H41.0171H588.84Z" stroke="url(#paint0_linear_3557_6947)" stroke-opacity="0.16" stroke-width="2"/>
    <defs>
        <linearGradient id="paint0_linear_3557_6947" x1="748.333" y1="168.333" x2="668.333" y2="1089.99" gradientUnits="userSpaceOnUse">
            <stop stop-color="#3E71F6"/>
            <stop offset="1" stop-color="white" stop-opacity="0"/>
        </linearGradient>
    </defs>
</svg>
