<svg width="379" height="45" viewBox="0 0 379 45" fill="none" xmlns="http://www.w3.org/2000/svg">
    <path d="M0.644344 44V38.144H6.37834V7.156H0.644344V1.3H17.7243C23.4177 1.3 27.769 2.74366 30.7783 5.631C33.8283 8.51833 35.3533 12.8697 35.3533 18.685V26.676C35.3533 32.4913 33.8283 36.8427 30.7783 39.73C27.769 42.5767 23.4177 44 17.7243 44H0.644344ZM13.0273 38.022H17.7853C21.486 38.022 24.231 37.0867 26.0203 35.216C27.8097 33.3453 28.7043 30.5597 28.7043 26.859V18.441C28.7043 14.6997 27.8097 11.914 26.0203 10.084C24.231 8.254 21.486 7.339 17.7853 7.339H13.0273V38.022ZM39.1492 44L51.3492 1.3H62.9392L75.0782 44H68.3072L65.5012 33.935H48.7872L45.9812 44H39.1492ZM50.4342 27.835H63.8542L57.6322 5.387H56.6562L50.4342 27.835ZM80.8632 44V1.3H87.4512V44H80.8632ZM96.3514 44V1.3H102.939V38.022H123.496V44H96.3514ZM133.365 44V28.506L118.542 1.3H125.984L136.232 20.637H137.147L147.395 1.3H154.837L140.014 28.506V44H133.365ZM189.383 44.854C186.17 44.854 183.324 44.2847 180.843 43.146C178.362 42.0073 176.41 40.34 174.987 38.144C173.604 35.9073 172.913 33.203 172.913 30.031V28.506H179.44V30.031C179.44 33.0403 180.335 35.2973 182.124 36.802C183.954 38.3067 186.374 39.059 189.383 39.059C192.433 39.059 194.731 38.4287 196.276 37.168C197.821 35.8667 198.594 34.1993 198.594 32.166C198.594 30.824 198.228 29.726 197.496 28.872C196.764 28.018 195.727 27.347 194.385 26.859C193.043 26.3303 191.437 25.8423 189.566 25.395L187.309 24.846C184.584 24.1953 182.205 23.4023 180.172 22.467C178.179 21.491 176.634 20.21 175.536 18.624C174.438 17.038 173.889 15.0047 173.889 12.524C173.889 10.0027 174.499 7.84733 175.719 6.058C176.98 4.26867 178.708 2.886 180.904 1.91C183.1 0.933997 185.682 0.445997 188.651 0.445997C191.62 0.445997 194.263 0.954331 196.581 1.971C198.94 2.98767 200.79 4.49233 202.132 6.485C203.474 8.47766 204.145 10.9787 204.145 13.988V16.184H197.618V13.988C197.618 12.158 197.232 10.6737 196.459 9.535C195.727 8.39633 194.69 7.56266 193.348 7.034C192.006 6.50533 190.44 6.241 188.651 6.241C186.048 6.241 184.015 6.79 182.551 7.888C181.128 8.94533 180.416 10.4297 180.416 12.341C180.416 13.6423 180.721 14.72 181.331 15.574C181.982 16.3873 182.917 17.0583 184.137 17.587C185.357 18.1157 186.882 18.5833 188.712 18.99L190.969 19.539C193.734 20.149 196.174 20.942 198.289 21.918C200.404 22.8533 202.071 24.1343 203.291 25.761C204.511 27.3877 205.121 29.482 205.121 32.044C205.121 34.606 204.47 36.8427 203.169 38.754C201.908 40.6653 200.099 42.17 197.74 43.268C195.381 44.3253 192.596 44.854 189.383 44.854ZM220.616 44V7.278H207.501V1.3H240.319V7.278H227.204V44H220.616ZM238.888 44L251.088 1.3H262.678L274.817 44H268.046L265.24 33.935H248.526L245.72 44H238.888ZM250.173 27.835H263.593L257.371 5.387H256.395L250.173 27.835ZM286.56 44V7.278H273.445V1.3H306.263V7.278H293.148V44H286.56ZM325.799 44.854C322.586 44.854 319.74 44.2847 317.259 43.146C314.778 42.0073 312.826 40.34 311.403 38.144C310.02 35.9073 309.329 33.203 309.329 30.031V28.506H315.856V30.031C315.856 33.0403 316.751 35.2973 318.54 36.802C320.37 38.3067 322.79 39.059 325.799 39.059C328.849 39.059 331.147 38.4287 332.692 37.168C334.237 35.8667 335.01 34.1993 335.01 32.166C335.01 30.824 334.644 29.726 333.912 28.872C333.18 28.018 332.143 27.347 330.801 26.859C329.459 26.3303 327.853 25.8423 325.982 25.395L323.725 24.846C321 24.1953 318.621 23.4023 316.588 22.467C314.595 21.491 313.05 20.21 311.952 18.624C310.854 17.038 310.305 15.0047 310.305 12.524C310.305 10.0027 310.915 7.84733 312.135 6.058C313.396 4.26867 315.124 2.886 317.32 1.91C319.516 0.933997 322.098 0.445997 325.067 0.445997C328.036 0.445997 330.679 0.954331 332.997 1.971C335.356 2.98767 337.206 4.49233 338.548 6.485C339.89 8.47766 340.561 10.9787 340.561 13.988V16.184H334.034V13.988C334.034 12.158 333.648 10.6737 332.875 9.535C332.143 8.39633 331.106 7.56266 329.764 7.034C328.422 6.50533 326.856 6.241 325.067 6.241C322.464 6.241 320.431 6.79 318.967 7.888C317.544 8.94533 316.832 10.4297 316.832 12.341C316.832 13.6423 317.137 14.72 317.747 15.574C318.398 16.3873 319.333 17.0583 320.553 17.587C321.773 18.1157 323.298 18.5833 325.128 18.99L327.385 19.539C330.15 20.149 332.59 20.942 334.705 21.918C336.82 22.8533 338.487 24.1343 339.707 25.761C340.927 27.3877 341.537 29.482 341.537 32.044C341.537 34.606 340.886 36.8427 339.585 38.754C338.324 40.6653 336.515 42.17 334.156 43.268C331.797 44.3253 329.012 44.854 325.799 44.854Z" fill="#F4F4F6"/>
    <path d="M358 23H379V44H358V23Z" fill="#64748B"/>
</svg>
