<svg width="48" height="48" viewBox="0 0 48 48" fill="none" xmlns="http://www.w3.org/2000/svg">
    <path d="M22.1673 35.9658H17.7335C15.5658 35.9658 13.7923 37.7393 13.7923 39.9069V40.3996H11.8217C11.0138 40.3996 10.3438 41.0696 10.3438 41.8775C10.3438 42.6855 11.0138 43.3555 11.8217 43.3555H35.4688C36.2767 43.3555 36.9467 42.6855 36.9467 41.8775C36.9467 41.0696 36.2767 40.3996 35.4688 40.3996H33.4982V39.9069C33.4982 37.7393 31.7246 35.9658 29.557 35.9658H25.1232V31.4531C24.6305 31.5122 24.1379 31.5319 23.6452 31.5319C23.1526 31.5319 22.6599 31.5122 22.1673 31.4531V35.9658Z" fill="#FFA05C"/>
    <path d="M36.4235 22.9379C37.7241 22.4452 38.8671 21.6373 39.7735 20.7308C41.6062 18.7011 42.8082 16.2773 42.8082 13.4396C42.8082 10.602 40.5815 8.37523 37.7438 8.37523H36.6403C35.9955 7.04721 34.9902 5.92726 33.7393 5.14326C32.4883 4.35926 31.0422 3.94279 29.5659 3.94141H17.7424C14.6288 3.94141 11.9488 5.75435 10.6679 8.37523H9.56441C6.72676 8.37523 4.5 10.602 4.5 13.4396C4.5 16.2773 5.70206 18.7011 7.53471 20.7308C8.44118 21.6373 9.58412 22.4452 10.8847 22.9379C11.9141 25.4798 13.6799 27.656 15.9552 29.1869C18.2306 30.7179 20.9117 31.5337 23.6541 31.5296C29.4476 31.5296 34.3741 27.9826 36.4235 22.9379ZM29.2506 16.6517L28.0288 18.1493C27.8318 18.3661 27.6938 18.7996 27.7135 19.0952L27.8318 21.0264C27.9106 22.2088 27.0632 22.8196 25.9597 22.3861L24.1665 21.6767C23.832 21.5782 23.4762 21.5782 23.1418 21.6767L21.3485 22.3861C20.245 22.8196 19.3976 22.2088 19.4765 21.0264L19.5947 19.0952C19.6022 18.753 19.4908 18.4187 19.2794 18.1493L18.0576 16.6517C17.2891 15.7452 17.6241 14.7402 18.7671 14.4446L20.6391 13.9717C20.9347 13.8929 21.2894 13.617 21.4471 13.3608L22.4915 11.7449C23.1418 10.7399 24.1665 10.7399 24.8168 11.7449L25.8612 13.3608C26.0188 13.617 26.3735 13.8929 26.6691 13.9717L28.5412 14.4446C29.6841 14.7402 30.0191 15.7452 29.2506 16.6517Z" fill="#FFA05C"/>
    <circle cx="24.6333" cy="16.7505" r="8.86765" fill="#FFA05C"/>
    <path d="M27.5603 20.7375C27.5603 22.6706 26.106 24.1249 23.2861 24.1249C20.7499 24.1249 19.1715 22.8125 18.8522 20.6311H20.4484C20.6612 21.9435 21.548 22.7771 23.2683 22.7771C25.0419 22.7771 25.9641 21.9967 25.9641 20.6666C25.9641 19.6911 25.4498 18.6447 22.7717 18.6447H22.3106V17.4033H22.6831C25.2192 17.4033 25.6271 16.3569 25.6271 15.5588C25.6271 14.3528 24.829 13.6434 23.3038 13.6434C21.7076 13.6434 20.8918 14.4415 20.679 15.7539H19.1005C19.402 13.6079 20.8741 12.2955 23.3215 12.2955C25.8931 12.2955 27.2233 13.6788 27.2233 15.541C27.2233 16.6052 26.7622 17.4387 25.5739 17.9353C27.0459 18.4851 27.5603 19.5138 27.5603 20.7375Z" fill="#121317"/>
</svg>
