<svg width="262" height="73" viewBox="0 0 262 73" fill="none" xmlns="http://www.w3.org/2000/svg">
    <path d="M122.371 63.2678H81.5731V9.97664H102.239C106.662 9.97664 110.271 10.7678 113.067 12.3502C115.812 13.8816 117.948 15.9745 119.473 18.6288C120.998 21.2832 121.761 24.2183 121.761 27.4341C121.761 31.4156 120.54 34.9888 118.1 38.1536C115.66 41.2674 112.584 43.3347 108.873 44.3556L122.371 63.2678ZM86.3773 12.8097L107.119 41.9054C110.525 41.1908 113.347 39.4808 115.584 36.7754C117.821 34.07 118.939 30.9562 118.939 27.4341C118.939 24.6266 118.253 22.0744 116.88 19.7773C115.507 17.4803 113.576 15.7192 111.085 14.4941C108.848 13.3711 105.924 12.8097 102.315 12.8097H86.3773ZM84.3946 14.6473V42.1351H103.993L84.3946 14.6473ZM84.3946 60.4348H117.033L105.899 44.8916L103.535 44.9681H84.3946V60.4348Z" fill="white"/>
    <path d="M172.718 63.2678H122.693L147.706 8.82812L172.718 63.2678ZM127.116 60.4348H168.295L147.706 15.5661L127.116 60.4348Z" fill="white"/>
    <path d="M195.766 32.1813L217.88 63.2678H175.176V9.97664H217.88L195.766 32.1813ZM193.783 34.1721L177.998 50.0216V60.4348H212.466L193.783 34.1721Z" fill="white"/>
    <path d="M223.236 9.97664H261.898V23.4526H237.115V30.1905H257.704V42.9774H237.115V49.7919H261.898V63.2678H223.236V9.97664Z" fill="white"/>
    <ellipse cx="36.0512" cy="36.0538" rx="36.0512" ry="36.0479" fill="#3B82F6"/>
    <path d="M30.6252 52.9391L20.9542 41.8584L38.7419 40.4449C42.1095 40.1773 42.0972 35.2397 38.7284 34.9889L20.7578 33.6505L20.9542 15.3086H37.9626C41.2898 15.3086 44.3544 16.1403 47.1563 17.8038C50.0019 19.4673 52.2566 21.7217 53.9202 24.5671C55.5838 27.3688 56.4156 30.433 56.4156 33.76V42.5589C56.4156 45.8858 55.5838 48.972 53.9202 51.8174C52.2566 54.619 50.0019 56.8516 47.1563 58.5151C44.3544 60.1785 41.2898 61.0103 37.9626 61.0103L30.6252 52.9391Z" fill="white"/>
</svg>
